M48
; DRILL file {KiCad (6.0.2)} date Wed 02 Mar 2022 09:11:57 PM PST
; FORMAT={-:-/ absolute / inch / decimal}
; #@! TF.CreationDate,2022-03-02T21:11:57-08:00
; #@! TF.GenerationSoftware,Kicad,Pcbnew,(6.0.2)
; #@! TF.FileFunction,Plated,1,2,PTH
FMAT,2
INCH
; #@! TA.AperFunction,Plated,PTH,ViaDrill
T1C0.0118
; #@! TA.AperFunction,Plated,PTH,ComponentDrill
T2C0.0276
; #@! TA.AperFunction,Plated,PTH,ComponentDrill
T3C0.0315
; #@! TA.AperFunction,Plated,PTH,ComponentDrill
T4C0.0433
; #@! TA.AperFunction,Plated,PTH,ComponentDrill
T5C0.0591
%
G90
G05
T1
X1.5364Y-3.0511
X1.5364Y-4.5471
X2.2844Y-2.49
X2.2844Y-3.9861
X3.0324Y-2.1751
X3.0324Y-3.6712
X3.7805Y-1.8011
X3.7805Y-3.2971
X3.7805Y-4.4192
X4.1545Y-5.0904
X4.5285Y-1.9881
X4.5285Y-2.7361
X4.5285Y-3.4841
X4.5285Y-4.6062
X5.0285Y-5.1456
X5.2765Y-2.7361
X5.2765Y-3.4841
X5.2765Y-4.2322
X5.749Y-2.3129
X5.749Y-2.7853
X5.749Y-3.0215
X5.997Y-4.7578
X6.1643Y-5.12
X6.932Y-5.1318
T3
X1.4257Y-2.431
X1.4257Y-3.179
X1.4257Y-3.9271
X1.4257Y-4.6751
X1.7257Y-2.431
X1.7257Y-3.179
X1.7257Y-3.9271
X1.7257Y-4.6751
X2.1738Y-2.431
X2.1738Y-3.179
X2.1738Y-3.9271
X2.1738Y-4.6751
X2.4738Y-2.431
X2.4738Y-3.179
X2.4738Y-3.9271
X2.4738Y-4.6751
X2.9143Y-2.8641
X2.9218Y-2.116
X2.9218Y-3.6121
X2.9218Y-4.3601
X3.2143Y-2.8641
X3.2218Y-2.116
X3.2218Y-3.6121
X3.2218Y-4.3601
X3.6698Y-1.8995
X3.6698Y-2.6475
X3.6698Y-3.3956
X3.6698Y-4.1436
X3.9698Y-1.8995
X3.9698Y-2.6475
X3.9698Y-3.3956
X3.9698Y-4.1436
X4.0045Y-5.2066
X4.3045Y-5.2066
X4.4179Y-2.116
X4.4179Y-2.8641
X4.4179Y-3.6121
X4.4179Y-4.3601
X4.7179Y-2.116
X4.7179Y-2.8641
X4.7179Y-3.6121
X4.7179Y-4.3601
X4.8325Y-5.2461
X5.13Y-5.2852
X5.1584Y-4.3601
X5.1659Y-2.116
X5.1659Y-2.8641
X5.1659Y-3.6121
X5.4584Y-4.3601
X5.4659Y-2.116
X5.4659Y-2.8641
X5.4659Y-3.6121
X6.2417Y-5.3515
X6.3193Y-5.0617
X7.0088Y-5.3641
X7.0865Y-5.0743
T4
X5.9214Y-1.4782
X5.9214Y-1.5782
X5.9214Y-1.6782
X5.9214Y-1.7782
X5.9214Y-1.8782
X5.9214Y-1.9782
X5.9214Y-2.0782
X5.9214Y-2.1782
X5.9214Y-2.2782
X5.9214Y-2.3782
X5.9214Y-2.4782
X5.9214Y-2.5782
X6.5214Y-1.4782
X6.5214Y-1.5782
X6.5214Y-1.6782
X6.5214Y-1.7782
X6.5214Y-1.8782
X6.5214Y-1.9782
X6.5214Y-2.0782
X6.5214Y-2.1782
X6.5214Y-2.2782
X6.5214Y-2.3782
X6.5214Y-2.4782
X6.5214Y-2.5782
T2
G00X6.3857Y-2.7114
M15
G01X6.3542Y-2.7114
M16
G05
G00X6.3857Y-3.0578
M15
G01X6.3542Y-3.0578
M16
G05
G00X6.4251Y-2.8846
M15
G01X6.3936Y-2.8846
M16
G05
G00X6.5826Y-2.8846
M15
G01X6.5511Y-2.8846
M16
G05
G00X6.7007Y-2.8846
M15
G01X6.6692Y-2.8846
M16
G05
T5
G00X1.4714Y-1.9401
M15
G01X1.4238Y-2.0148
M16
G05
G00X1.4714Y-2.6881
M15
G01X1.4238Y-2.7628
M16
G05
G00X1.4714Y-3.4362
M15
G01X1.4238Y-3.5109
M16
G05
G00X1.4714Y-4.1842
M15
G01X1.4238Y-4.2589
M16
G05
G00X1.4758Y-1.9161
M15
G01X1.4773Y-1.9388
M16
G05
G00X1.4758Y-2.6641
M15
G01X1.4773Y-2.6869
M16
G05
G00X1.4758Y-3.4121
M15
G01X1.4773Y-3.4349
M16
G05
G00X1.4758Y-4.1602
M15
G01X1.4773Y-4.1829
M16
G05
G00X1.6757Y-1.9161
M15
G01X1.6742Y-1.9388
M16
G05
G00X1.6757Y-2.6641
M15
G01X1.6742Y-2.6869
M16
G05
G00X1.6757Y-3.4121
M15
G01X1.6742Y-3.4349
M16
G05
G00X1.6757Y-4.1602
M15
G01X1.6742Y-4.1829
M16
G05
G00X1.6801Y-1.9401
M15
G01X1.7277Y-2.0148
M16
G05
G00X1.6801Y-2.6881
M15
G01X1.7277Y-2.7628
M16
G05
G00X1.6801Y-3.4362
M15
G01X1.7277Y-3.5109
M16
G05
G00X1.6801Y-4.1842
M15
G01X1.7277Y-4.2589
M16
G05
G00X2.2194Y-1.9401
M15
G01X2.1718Y-2.0148
M16
G05
G00X2.2194Y-2.6881
M15
G01X2.1718Y-2.7628
M16
G05
G00X2.2194Y-3.4362
M15
G01X2.1718Y-3.5109
M16
G05
G00X2.2194Y-4.1842
M15
G01X2.1718Y-4.2589
M16
G05
G00X2.2238Y-1.9161
M15
G01X2.2253Y-1.9388
M16
G05
G00X2.2238Y-2.6641
M15
G01X2.2253Y-2.6869
M16
G05
G00X2.2238Y-3.4121
M15
G01X2.2253Y-3.4349
M16
G05
G00X2.2238Y-4.1602
M15
G01X2.2253Y-4.1829
M16
G05
G00X2.4238Y-1.9161
M15
G01X2.4222Y-1.9388
M16
G05
G00X2.4238Y-2.6641
M15
G01X2.4222Y-2.6869
M16
G05
G00X2.4238Y-3.4121
M15
G01X2.4222Y-3.4349
M16
G05
G00X2.4238Y-4.1602
M15
G01X2.4222Y-4.1829
M16
G05
G00X2.4281Y-1.9401
M15
G01X2.4757Y-2.0148
M16
G05
G00X2.4281Y-2.6881
M15
G01X2.4757Y-2.7628
M16
G05
G00X2.4281Y-3.4362
M15
G01X2.4757Y-3.5109
M16
G05
G00X2.4281Y-4.1842
M15
G01X2.4757Y-4.2589
M16
G05
G00X2.9675Y-1.6251
M15
G01X2.9199Y-1.6998
M16
G05
G00X2.9675Y-2.3732
M15
G01X2.9199Y-2.4479
M16
G05
G00X2.9675Y-3.1212
M15
G01X2.9199Y-3.1959
M16
G05
G00X2.9675Y-3.8692
M15
G01X2.9199Y-3.9439
M16
G05
G00X2.9718Y-1.6011
M15
G01X2.9734Y-1.6239
M16
G05
G00X2.9718Y-2.3491
M15
G01X2.9734Y-2.3719
M16
G05
G00X2.9718Y-3.0972
M15
G01X2.9734Y-3.1199
M16
G05
G00X2.9718Y-3.8452
M15
G01X2.9734Y-3.868
M16
G05
G00X3.1718Y-1.6011
M15
G01X3.1702Y-1.6239
M16
G05
G00X3.1718Y-2.3491
M15
G01X3.1702Y-2.3719
M16
G05
G00X3.1718Y-3.0972
M15
G01X3.1702Y-3.1199
M16
G05
G00X3.1718Y-3.8452
M15
G01X3.1702Y-3.868
M16
G05
G00X3.1762Y-1.6251
M15
G01X3.2238Y-1.6998
M16
G05
G00X3.1762Y-2.3732
M15
G01X3.2238Y-2.4479
M16
G05
G00X3.1762Y-3.1212
M15
G01X3.2238Y-3.1959
M16
G05
G00X3.1762Y-3.8692
M15
G01X3.2238Y-3.9439
M16
G05
G00X3.7155Y-1.4086
M15
G01X3.6679Y-1.4833
M16
G05
G00X3.7155Y-2.1566
M15
G01X3.6679Y-2.2313
M16
G05
G00X3.7155Y-2.9047
M15
G01X3.6679Y-2.9794
M16
G05
G00X3.7155Y-3.6527
M15
G01X3.6679Y-3.7274
M16
G05
G00X3.7199Y-1.3846
M15
G01X3.7214Y-1.4073
M16
G05
G00X3.7199Y-2.1326
M15
G01X3.7214Y-2.1554
M16
G05
G00X3.7199Y-2.8806
M15
G01X3.7214Y-2.9034
M16
G05
G00X3.7199Y-3.6287
M15
G01X3.7214Y-3.6514
M16
G05
G00X3.9198Y-1.3846
M15
G01X3.9183Y-1.4073
M16
G05
G00X3.9198Y-2.1326
M15
G01X3.9183Y-2.1554
M16
G05
G00X3.9198Y-2.8806
M15
G01X3.9183Y-2.9034
M16
G05
G00X3.9198Y-3.6287
M15
G01X3.9183Y-3.6514
M16
G05
G00X3.9242Y-1.4086
M15
G01X3.9718Y-1.4833
M16
G05
G00X3.9242Y-2.1566
M15
G01X3.9718Y-2.2313
M16
G05
G00X3.9242Y-2.9047
M15
G01X3.9718Y-2.9794
M16
G05
G00X3.9242Y-3.6527
M15
G01X3.9718Y-3.7274
M16
G05
G00X4.0501Y-4.7275
M15
G01X4.0025Y-4.8022
M16
G05
G00X4.0545Y-4.7035
M15
G01X4.0561Y-4.7262
M16
G05
G00X4.2545Y-4.7035
M15
G01X4.2529Y-4.7262
M16
G05
G00X4.2588Y-4.7275
M15
G01X4.3064Y-4.8022
M16
G05
G00X4.4635Y-1.6251
M15
G01X4.4159Y-1.6998
M16
G05
G00X4.4635Y-2.3732
M15
G01X4.4159Y-2.4479
M16
G05
G00X4.4635Y-3.1212
M15
G01X4.4159Y-3.1959
M16
G05
G00X4.4635Y-3.8692
M15
G01X4.4159Y-3.9439
M16
G05
G00X4.4679Y-1.6011
M15
G01X4.4694Y-1.6239
M16
G05
G00X4.4679Y-2.3491
M15
G01X4.4694Y-2.3719
M16
G05
G00X4.4679Y-3.0972
M15
G01X4.4694Y-3.1199
M16
G05
G00X4.4679Y-3.8452
M15
G01X4.4694Y-3.868
M16
G05
G00X4.6679Y-1.6011
M15
G01X4.6663Y-1.6239
M16
G05
G00X4.6679Y-2.3491
M15
G01X4.6663Y-2.3719
M16
G05
G00X4.6679Y-3.0972
M15
G01X4.6663Y-3.1199
M16
G05
G00X4.6679Y-3.8452
M15
G01X4.6663Y-3.868
M16
G05
G00X4.6722Y-1.6251
M15
G01X4.7198Y-1.6998
M16
G05
G00X4.6722Y-2.3732
M15
G01X4.7198Y-2.4479
M16
G05
G00X4.6722Y-3.1212
M15
G01X4.7198Y-3.1959
M16
G05
G00X4.6722Y-3.8692
M15
G01X4.7198Y-3.9439
M16
G05
G00X4.948Y-4.7705
M15
G01X4.8911Y-4.8384
M16
G05
G00X4.9555Y-4.7472
M15
G01X4.954Y-4.77
M16
G05
G00X5.1537Y-4.7733
M15
G01X5.1492Y-4.7957
M16
G05
G00X5.1549Y-4.7977
M15
G01X5.1924Y-4.878
M16
G05
G00X5.2116Y-1.6251
M15
G01X5.164Y-1.6998
M16
G05
G00X5.2116Y-2.3732
M15
G01X5.164Y-2.4479
M16
G05
G00X5.2116Y-3.1212
M15
G01X5.164Y-3.1959
M16
G05
G00X5.2116Y-3.8692
M15
G01X5.164Y-3.9439
M16
G05
G00X5.2159Y-1.6011
M15
G01X5.2175Y-1.6239
M16
G05
G00X5.2159Y-2.3491
M15
G01X5.2175Y-2.3719
M16
G05
G00X5.2159Y-3.0972
M15
G01X5.2175Y-3.1199
M16
G05
G00X5.2159Y-3.8452
M15
G01X5.2175Y-3.868
M16
G05
G00X5.4159Y-1.6011
M15
G01X5.4143Y-1.6239
M16
G05
G00X5.4159Y-2.3491
M15
G01X5.4143Y-2.3719
M16
G05
G00X5.4159Y-3.0972
M15
G01X5.4143Y-3.1199
M16
G05
G00X5.4159Y-3.8452
M15
G01X5.4143Y-3.868
M16
G05
G00X5.4203Y-1.6251
M15
G01X5.4679Y-1.6998
M16
G05
G00X5.4203Y-2.3732
M15
G01X5.4679Y-2.4479
M16
G05
G00X5.4203Y-3.1212
M15
G01X5.4679Y-3.1959
M16
G05
G00X5.4203Y-3.8692
M15
G01X5.4679Y-3.9439
M16
G05
G00X5.7583Y-5.1648
M15
G01X5.7807Y-5.1692
M16
G05
G00X5.7804Y-5.1752
M15
G01X5.8402Y-5.2405
M16
G05
G00X5.81Y-4.9716
M15
G01X5.8316Y-4.979
M16
G05
G00X5.8344Y-4.9736
M15
G01X5.9189Y-4.947
M16
G05
G00X6.526Y-5.1766
M15
G01X6.5484Y-5.181
M16
G05
G00X6.5481Y-5.187
M15
G01X6.6079Y-5.2524
M16
G05
G00X6.5778Y-4.9834
M15
G01X6.5994Y-4.9908
M16
G05
G00X6.6021Y-4.9854
M15
G01X6.6866Y-4.9588
M16
G05
T0
M30
