%TF.GenerationSoftware,KiCad,Pcbnew,(6.0.2)*%
%TF.CreationDate,2022-03-02T20:59:58-08:00*%
%TF.ProjectId,CANDIEKEYBOARD,43414e44-4945-44b4-9559-424f4152442e,rev?*%
%TF.SameCoordinates,Original*%
%TF.FileFunction,Profile,NP*%
%FSLAX46Y46*%
G04 Gerber Fmt 4.6, Leading zero omitted, Abs format (unit mm)*
G04 Created by KiCad (PCBNEW (6.0.2)) date 2022-03-02 20:59:58*
%MOMM*%
%LPD*%
G01*
G04 APERTURE LIST*
%TA.AperFunction,Profile*%
%ADD10C,0.250000*%
%TD*%
G04 APERTURE END LIST*
D10*
X87524039Y-36247239D02*
X68524039Y-36247239D01*
X30524039Y-44247239D02*
X30524039Y-120247239D01*
X68524039Y-36247239D02*
X60524039Y-44247239D01*
X66980893Y-41904093D02*
G75*
G03*
X66980893Y-41904093I-800000J0D01*
G01*
X96024039Y-134084691D02*
X118044041Y-134084691D01*
X173224039Y-116133533D02*
X173224039Y-36245693D01*
X173224039Y-36245693D02*
X106524039Y-36245693D01*
X171524039Y-38745693D02*
G75*
G03*
X171524039Y-38745693I-800000J0D01*
G01*
X106524039Y-36245693D02*
X106524039Y-30747239D01*
X30524039Y-120247239D02*
X82186587Y-120247239D01*
X71824039Y-117747239D02*
G75*
G03*
X71824039Y-117747239I-800000J0D01*
G01*
X137688915Y-145952420D02*
X156041506Y-150869982D01*
X82186587Y-120247239D02*
X96024039Y-134084691D01*
X60524039Y-44247239D02*
X30524039Y-44247239D01*
X158500287Y-141693687D02*
X176852878Y-146611249D01*
X106524039Y-30747239D02*
X87524039Y-30747239D01*
X87524039Y-30747239D02*
X87524039Y-36247239D01*
X118044041Y-134084691D02*
X140091127Y-136987245D01*
X184229220Y-119082363D02*
X173224039Y-116133533D01*
X156041506Y-150869982D02*
X158500287Y-141693687D01*
X176852878Y-146611249D02*
X184229220Y-119082363D01*
X171524039Y-88745693D02*
G75*
G03*
X171524039Y-88745693I-800000J0D01*
G01*
X136679406Y-114747239D02*
G75*
G03*
X136679406Y-114747239I-800000J0D01*
G01*
X140091127Y-136987245D02*
X137688915Y-145952420D01*
X171524039Y-112875470D02*
G75*
G03*
X171524039Y-112875470I-800000J0D01*
G01*
M02*
