M48
; DRILL file {KiCad (6.0.2)} date Wed 02 Mar 2022 09:11:57 PM PST
; FORMAT={-:-/ absolute / inch / decimal}
; #@! TF.CreationDate,2022-03-02T21:11:57-08:00
; #@! TF.GenerationSoftware,Kicad,Pcbnew,(6.0.2)
; #@! TF.FileFunction,NonPlated,1,2,NPTH
FMAT,2
INCH
; #@! TA.AperFunction,NonPlated,NPTH,ComponentDrill
T1C0.0591
; #@! TA.AperFunction,NonPlated,NPTH,ComponentDrill
T2C0.0670
; #@! TA.AperFunction,NonPlated,NPTH,ComponentDrill
T3C0.1200
; #@! TA.AperFunction,NonPlated,NPTH,ComponentDrill
T4C0.1570
%
G90
G05
T1
X6.4665Y-2.798
X6.4665Y-2.9712
X6.742Y-2.798
X6.742Y-2.9712
T2
X1.3757Y-2.116
X1.3757Y-2.8641
X1.3757Y-3.6121
X1.3757Y-4.3601
X1.7757Y-2.116
X1.7757Y-2.8641
X1.7757Y-3.6121
X1.7757Y-4.3601
X2.1238Y-2.116
X2.1238Y-2.8641
X2.1238Y-3.6121
X2.1238Y-4.3601
X2.5238Y-2.116
X2.5238Y-2.8641
X2.5238Y-3.6121
X2.5238Y-4.3601
X2.8718Y-1.8011
X2.8718Y-2.5491
X2.8718Y-3.2971
X2.8718Y-4.0452
X3.2718Y-1.8011
X3.2718Y-2.5491
X3.2718Y-3.2971
X3.2718Y-4.0452
X3.6198Y-1.5845
X3.6198Y-2.3326
X3.6198Y-3.0806
X3.6198Y-3.8286
X3.9545Y-4.9034
X4.0198Y-1.5845
X4.0198Y-2.3326
X4.0198Y-3.0806
X4.0198Y-3.8286
X4.3545Y-4.9034
X4.3679Y-1.8011
X4.3679Y-2.5491
X4.3679Y-3.2971
X4.3679Y-4.0452
X4.7679Y-1.8011
X4.7679Y-2.5491
X4.7679Y-3.2971
X4.7679Y-4.0452
X4.8302Y-4.9324
X5.1159Y-1.8011
X5.1159Y-2.5491
X5.1159Y-3.2971
X5.1159Y-4.0452
X5.2268Y-4.9847
X5.5159Y-1.8011
X5.5159Y-2.5491
X5.5159Y-3.2971
X5.5159Y-4.0452
X5.9256Y-5.3132
X6.0291Y-4.9268
X6.6933Y-5.325
X6.7968Y-4.9386
T3
X5.59Y-5.5028
X5.8333Y-4.5948
T4
X1.5757Y-2.116
X1.5757Y-2.8641
X1.5757Y-3.6121
X1.5757Y-4.3601
X2.3238Y-2.116
X2.3238Y-2.8641
X2.3238Y-3.6121
X2.3238Y-4.3601
X3.0718Y-1.8011
X3.0718Y-2.5491
X3.0718Y-3.2971
X3.0718Y-4.0452
X3.8198Y-1.5845
X3.8198Y-2.3326
X3.8198Y-3.0806
X3.8198Y-3.8286
X4.1545Y-4.9034
X4.5679Y-1.8011
X4.5679Y-2.5491
X4.5679Y-3.2971
X4.5679Y-4.0452
X5.0285Y-4.9586
X5.3159Y-1.8011
X5.3159Y-2.5491
X5.3159Y-3.2971
X5.3159Y-4.0452
X5.9773Y-5.12
X6.1696Y-5.6581
X6.4129Y-4.7501
X6.745Y-5.1318
T0
M30
